<svg width="1225" height="524" viewBox="0 0 1225 524" fill="none" xmlns="http://www.w3.org/2000/svg">
<rect width="1225" height="524" rx="60" fill="#BFBFBF"/>
<path d="M457.54 277H453.66V248.34H457.54V277ZM463.718 277V256.74H465.858C466.365 256.74 466.678 256.987 466.798 257.48L467.058 259.56C467.805 258.64 468.645 257.887 469.578 257.3C470.512 256.713 471.592 256.42 472.818 256.42C474.178 256.42 475.278 256.8 476.118 257.56C476.972 258.32 477.585 259.347 477.958 260.64C478.252 259.907 478.625 259.273 479.078 258.74C479.545 258.207 480.065 257.767 480.638 257.42C481.212 257.073 481.818 256.82 482.458 256.66C483.112 256.5 483.772 256.42 484.438 256.42C485.505 256.42 486.452 256.593 487.278 256.94C488.118 257.273 488.825 257.767 489.398 258.42C489.985 259.073 490.432 259.88 490.738 260.84C491.045 261.787 491.198 262.873 491.198 264.1V277H487.618V264.1C487.618 262.513 487.272 261.313 486.578 260.5C485.885 259.673 484.885 259.26 483.578 259.26C482.992 259.26 482.432 259.367 481.898 259.58C481.378 259.78 480.918 260.08 480.518 260.48C480.118 260.88 479.798 261.387 479.558 262C479.332 262.6 479.218 263.3 479.218 264.1V277H475.638V264.1C475.638 262.473 475.312 261.26 474.658 260.46C474.005 259.66 473.052 259.26 471.798 259.26C470.918 259.26 470.105 259.5 469.358 259.98C468.612 260.447 467.925 261.087 467.298 261.9V277H463.718ZM507.589 267.88C505.949 267.933 504.549 268.067 503.389 268.28C502.242 268.48 501.302 268.747 500.569 269.08C499.849 269.413 499.322 269.807 498.989 270.26C498.669 270.713 498.509 271.22 498.509 271.78C498.509 272.313 498.596 272.773 498.769 273.16C498.942 273.547 499.176 273.867 499.469 274.12C499.776 274.36 500.129 274.54 500.529 274.66C500.942 274.767 501.382 274.82 501.849 274.82C502.476 274.82 503.049 274.76 503.569 274.64C504.089 274.507 504.576 274.32 505.029 274.08C505.496 273.84 505.936 273.553 506.349 273.22C506.776 272.887 507.189 272.507 507.589 272.08V267.88ZM496.089 259.6C497.209 258.52 498.416 257.713 499.709 257.18C501.002 256.647 502.436 256.38 504.009 256.38C505.142 256.38 506.149 256.567 507.029 256.94C507.909 257.313 508.649 257.833 509.249 258.5C509.849 259.167 510.302 259.973 510.609 260.92C510.916 261.867 511.069 262.907 511.069 264.04V277H509.489C509.142 277 508.876 276.947 508.689 276.84C508.502 276.72 508.356 276.493 508.249 276.16L507.849 274.24C507.316 274.733 506.796 275.173 506.289 275.56C505.782 275.933 505.249 276.253 504.689 276.52C504.129 276.773 503.529 276.967 502.889 277.1C502.262 277.247 501.562 277.32 500.789 277.32C500.002 277.32 499.262 277.213 498.569 277C497.876 276.773 497.269 276.44 496.749 276C496.242 275.56 495.836 275.007 495.529 274.34C495.236 273.66 495.089 272.86 495.089 271.94C495.089 271.14 495.309 270.373 495.749 269.64C496.189 268.893 496.902 268.233 497.889 267.66C498.876 267.087 500.162 266.62 501.749 266.26C503.336 265.887 505.282 265.673 507.589 265.62V264.04C507.589 262.467 507.249 261.28 506.569 260.48C505.889 259.667 504.896 259.26 503.589 259.26C502.709 259.26 501.969 259.373 501.369 259.6C500.782 259.813 500.269 260.06 499.829 260.34C499.402 260.607 499.029 260.853 498.709 261.08C498.402 261.293 498.096 261.4 497.789 261.4C497.549 261.4 497.342 261.34 497.169 261.22C496.996 261.087 496.849 260.927 496.729 260.74L496.089 259.6ZM523.552 267.1C524.272 267.1 524.905 267 525.452 266.8C525.999 266.6 526.459 266.32 526.832 265.96C527.205 265.6 527.485 265.173 527.672 264.68C527.859 264.173 527.952 263.62 527.952 263.02C527.952 261.78 527.572 260.793 526.812 260.06C526.065 259.327 524.979 258.96 523.552 258.96C522.112 258.96 521.012 259.327 520.252 260.06C519.505 260.793 519.132 261.78 519.132 263.02C519.132 263.62 519.225 264.173 519.412 264.68C519.612 265.173 519.899 265.6 520.272 265.96C520.645 266.32 521.105 266.6 521.652 266.8C522.199 267 522.832 267.1 523.552 267.1ZM529.972 278.1C529.972 277.607 529.832 277.207 529.552 276.9C529.272 276.593 528.892 276.353 528.412 276.18C527.945 276.007 527.399 275.887 526.772 275.82C526.145 275.74 525.479 275.68 524.772 275.64C524.079 275.6 523.372 275.56 522.652 275.52C521.932 275.48 521.239 275.413 520.572 275.32C519.825 275.667 519.212 276.107 518.732 276.64C518.265 277.16 518.032 277.773 518.032 278.48C518.032 278.933 518.145 279.353 518.372 279.74C518.612 280.14 518.972 280.48 519.452 280.76C519.932 281.053 520.532 281.28 521.252 281.44C521.985 281.613 522.845 281.7 523.832 281.7C524.792 281.7 525.652 281.613 526.412 281.44C527.172 281.267 527.812 281.02 528.332 280.7C528.865 280.38 529.272 280 529.552 279.56C529.832 279.12 529.972 278.633 529.972 278.1ZM533.592 257.54V258.86C533.592 259.3 533.312 259.58 532.752 259.7L530.452 260C530.905 260.88 531.132 261.853 531.132 262.92C531.132 263.907 530.939 264.807 530.552 265.62C530.179 266.42 529.659 267.107 528.992 267.68C528.325 268.253 527.525 268.693 526.592 269C525.659 269.307 524.645 269.46 523.552 269.46C522.605 269.46 521.712 269.347 520.872 269.12C520.445 269.387 520.119 269.673 519.892 269.98C519.665 270.273 519.552 270.573 519.552 270.88C519.552 271.36 519.745 271.727 520.132 271.98C520.532 272.22 521.052 272.393 521.692 272.5C522.332 272.607 523.059 272.673 523.872 272.7C524.699 272.727 525.539 272.773 526.392 272.84C527.259 272.893 528.099 272.993 528.912 273.14C529.739 273.287 530.472 273.527 531.112 273.86C531.752 274.193 532.265 274.653 532.652 275.24C533.052 275.827 533.252 276.587 533.252 277.52C533.252 278.387 533.032 279.227 532.592 280.04C532.165 280.853 531.545 281.573 530.732 282.2C529.919 282.84 528.919 283.347 527.732 283.72C526.559 284.107 525.232 284.3 523.752 284.3C522.272 284.3 520.979 284.153 519.872 283.86C518.765 283.567 517.845 283.173 517.112 282.68C516.379 282.187 515.825 281.613 515.452 280.96C515.092 280.32 514.912 279.647 514.912 278.94C514.912 277.94 515.225 277.093 515.852 276.4C516.479 275.707 517.339 275.153 518.432 274.74C517.832 274.473 517.352 274.12 516.992 273.68C516.645 273.227 516.472 272.62 516.472 271.86C516.472 271.567 516.525 271.267 516.632 270.96C516.739 270.64 516.899 270.327 517.112 270.02C517.339 269.7 517.612 269.4 517.932 269.12C518.252 268.84 518.625 268.593 519.052 268.38C518.052 267.82 517.272 267.08 516.712 266.16C516.152 265.227 515.872 264.147 515.872 262.92C515.872 261.933 516.059 261.04 516.432 260.24C516.819 259.427 517.352 258.74 518.032 258.18C518.712 257.607 519.519 257.167 520.452 256.86C521.399 256.553 522.432 256.4 523.552 256.4C524.432 256.4 525.252 256.5 526.012 256.7C526.772 256.887 527.465 257.167 528.092 257.54H533.592ZM550.521 264.66C550.521 263.833 550.401 263.08 550.161 262.4C549.934 261.707 549.594 261.113 549.141 260.62C548.701 260.113 548.161 259.727 547.521 259.46C546.881 259.18 546.154 259.04 545.341 259.04C543.634 259.04 542.281 259.54 541.281 260.54C540.294 261.527 539.681 262.9 539.441 264.66H550.521ZM553.401 274.16C552.961 274.693 552.434 275.16 551.821 275.56C551.207 275.947 550.547 276.267 549.841 276.52C549.147 276.773 548.427 276.96 547.681 277.08C546.934 277.213 546.194 277.28 545.461 277.28C544.061 277.28 542.767 277.047 541.581 276.58C540.407 276.1 539.387 275.407 538.521 274.5C537.667 273.58 537.001 272.447 536.521 271.1C536.041 269.753 535.801 268.207 535.801 266.46C535.801 265.047 536.014 263.727 536.441 262.5C536.881 261.273 537.507 260.213 538.321 259.32C539.134 258.413 540.127 257.707 541.301 257.2C542.474 256.68 543.794 256.42 545.261 256.42C546.474 256.42 547.594 256.627 548.621 257.04C549.661 257.44 550.554 258.027 551.301 258.8C552.061 259.56 552.654 260.507 553.081 261.64C553.507 262.76 553.721 264.04 553.721 265.48C553.721 266.04 553.661 266.413 553.541 266.6C553.421 266.787 553.194 266.88 552.861 266.88H539.321C539.361 268.16 539.534 269.273 539.841 270.22C540.161 271.167 540.601 271.96 541.161 272.6C541.721 273.227 542.387 273.7 543.161 274.02C543.934 274.327 544.801 274.48 545.761 274.48C546.654 274.48 547.421 274.38 548.061 274.18C548.714 273.967 549.274 273.74 549.741 273.5C550.207 273.26 550.594 273.04 550.901 272.84C551.221 272.627 551.494 272.52 551.721 272.52C552.014 272.52 552.241 272.633 552.401 272.86L553.401 274.16ZM558.093 277V256.74H560.233C560.74 256.74 561.053 256.987 561.173 257.48L561.433 259.56C562.18 258.64 563.02 257.887 563.953 257.3C564.887 256.713 565.967 256.42 567.193 256.42C568.553 256.42 569.653 256.8 570.493 257.56C571.347 258.32 571.96 259.347 572.333 260.64C572.627 259.907 573 259.273 573.453 258.74C573.92 258.207 574.44 257.767 575.013 257.42C575.587 257.073 576.193 256.82 576.833 256.66C577.487 256.5 578.147 256.42 578.813 256.42C579.88 256.42 580.827 256.593 581.653 256.94C582.493 257.273 583.2 257.767 583.773 258.42C584.36 259.073 584.807 259.88 585.113 260.84C585.42 261.787 585.573 262.873 585.573 264.1V277H581.993V264.1C581.993 262.513 581.647 261.313 580.953 260.5C580.26 259.673 579.26 259.26 577.953 259.26C577.367 259.26 576.807 259.367 576.273 259.58C575.753 259.78 575.293 260.08 574.893 260.48C574.493 260.88 574.173 261.387 573.933 262C573.707 262.6 573.593 263.3 573.593 264.1V277H570.013V264.1C570.013 262.473 569.687 261.26 569.033 260.46C568.38 259.66 567.427 259.26 566.173 259.26C565.293 259.26 564.48 259.5 563.733 259.98C562.987 260.447 562.3 261.087 561.673 261.9V277H558.093ZM614.418 261.56C613.752 260.667 613.032 260.047 612.258 259.7C611.485 259.34 610.618 259.16 609.658 259.16C607.778 259.16 606.332 259.833 605.318 261.18C604.305 262.527 603.798 264.447 603.798 266.94C603.798 268.26 603.912 269.393 604.138 270.34C604.365 271.273 604.698 272.047 605.138 272.66C605.578 273.26 606.118 273.7 606.758 273.98C607.398 274.26 608.125 274.4 608.938 274.4C610.112 274.4 611.132 274.133 611.998 273.6C612.878 273.067 613.685 272.313 614.418 271.34V261.56ZM617.978 247.54V277H615.858C615.352 277 615.032 276.753 614.898 276.26L614.578 273.8C613.712 274.84 612.725 275.68 611.618 276.32C610.512 276.96 609.232 277.28 607.778 277.28C606.618 277.28 605.565 277.06 604.618 276.62C603.672 276.167 602.865 275.507 602.198 274.64C601.532 273.773 601.018 272.693 600.658 271.4C600.298 270.107 600.118 268.62 600.118 266.94C600.118 265.447 600.318 264.06 600.718 262.78C601.118 261.487 601.692 260.367 602.438 259.42C603.185 258.473 604.098 257.733 605.178 257.2C606.272 256.653 607.498 256.38 608.858 256.38C610.098 256.38 611.158 256.593 612.038 257.02C612.932 257.433 613.725 258.013 614.418 258.76V247.54H617.978ZM632.141 256.42C633.621 256.42 634.955 256.667 636.141 257.16C637.328 257.653 638.341 258.353 639.181 259.26C640.021 260.167 640.661 261.267 641.101 262.56C641.555 263.84 641.781 265.273 641.781 266.86C641.781 268.46 641.555 269.9 641.101 271.18C640.661 272.46 640.021 273.553 639.181 274.46C638.341 275.367 637.328 276.067 636.141 276.56C634.955 277.04 633.621 277.28 632.141 277.28C630.648 277.28 629.301 277.04 628.101 276.56C626.915 276.067 625.901 275.367 625.061 274.46C624.221 273.553 623.575 272.46 623.121 271.18C622.681 269.9 622.461 268.46 622.461 266.86C622.461 265.273 622.681 263.84 623.121 262.56C623.575 261.267 624.221 260.167 625.061 259.26C625.901 258.353 626.915 257.653 628.101 257.16C629.301 256.667 630.648 256.42 632.141 256.42ZM632.141 274.5C634.141 274.5 635.635 273.833 636.621 272.5C637.608 271.153 638.101 269.28 638.101 266.88C638.101 264.467 637.608 262.587 636.621 261.24C635.635 259.893 634.141 259.22 632.141 259.22C631.128 259.22 630.241 259.393 629.481 259.74C628.735 260.087 628.108 260.587 627.601 261.24C627.108 261.893 626.735 262.7 626.481 263.66C626.241 264.607 626.121 265.68 626.121 266.88C626.121 269.28 626.615 271.153 627.601 272.5C628.601 273.833 630.115 274.5 632.141 274.5ZM670.091 264.66C670.091 263.833 669.971 263.08 669.731 262.4C669.504 261.707 669.164 261.113 668.711 260.62C668.271 260.113 667.731 259.727 667.091 259.46C666.451 259.18 665.724 259.04 664.911 259.04C663.204 259.04 661.851 259.54 660.851 260.54C659.864 261.527 659.251 262.9 659.011 264.66H670.091ZM672.971 274.16C672.531 274.693 672.004 275.16 671.391 275.56C670.778 275.947 670.118 276.267 669.411 276.52C668.718 276.773 667.998 276.96 667.251 277.08C666.504 277.213 665.764 277.28 665.031 277.28C663.631 277.28 662.338 277.047 661.151 276.58C659.978 276.1 658.958 275.407 658.091 274.5C657.238 273.58 656.571 272.447 656.091 271.1C655.611 269.753 655.371 268.207 655.371 266.46C655.371 265.047 655.584 263.727 656.011 262.5C656.451 261.273 657.078 260.213 657.891 259.32C658.704 258.413 659.698 257.707 660.871 257.2C662.044 256.68 663.364 256.42 664.831 256.42C666.044 256.42 667.164 256.627 668.191 257.04C669.231 257.44 670.124 258.027 670.871 258.8C671.631 259.56 672.224 260.507 672.651 261.64C673.078 262.76 673.291 264.04 673.291 265.48C673.291 266.04 673.231 266.413 673.111 266.6C672.991 266.787 672.764 266.88 672.431 266.88H658.891C658.931 268.16 659.104 269.273 659.411 270.22C659.731 271.167 660.171 271.96 660.731 272.6C661.291 273.227 661.958 273.7 662.731 274.02C663.504 274.327 664.371 274.48 665.331 274.48C666.224 274.48 666.991 274.38 667.631 274.18C668.284 273.967 668.844 273.74 669.311 273.5C669.778 273.26 670.164 273.04 670.471 272.84C670.791 272.627 671.064 272.52 671.291 272.52C671.584 272.52 671.811 272.633 671.971 272.86L672.971 274.16ZM694.594 256.74L686.334 277H683.134L674.874 256.74H677.774C678.067 256.74 678.307 256.813 678.494 256.96C678.681 257.107 678.807 257.28 678.874 257.48L684.014 270.52C684.174 271.013 684.314 271.493 684.434 271.96C684.554 272.427 684.667 272.893 684.774 273.36C684.881 272.893 684.994 272.427 685.114 271.96C685.234 271.493 685.381 271.013 685.554 270.52L690.754 257.48C690.834 257.267 690.967 257.093 691.154 256.96C691.341 256.813 691.561 256.74 691.814 256.74H694.594ZM710.872 264.66C710.872 263.833 710.752 263.08 710.512 262.4C710.286 261.707 709.946 261.113 709.492 260.62C709.052 260.113 708.512 259.727 707.872 259.46C707.232 259.18 706.506 259.04 705.692 259.04C703.986 259.04 702.632 259.54 701.632 260.54C700.646 261.527 700.032 262.9 699.792 264.66H710.872ZM713.752 274.16C713.312 274.693 712.786 275.16 712.172 275.56C711.559 275.947 710.899 276.267 710.192 276.52C709.499 276.773 708.779 276.96 708.032 277.08C707.286 277.213 706.546 277.28 705.812 277.28C704.412 277.28 703.119 277.047 701.932 276.58C700.759 276.1 699.739 275.407 698.872 274.5C698.019 273.58 697.352 272.447 696.872 271.1C696.392 269.753 696.152 268.207 696.152 266.46C696.152 265.047 696.366 263.727 696.792 262.5C697.232 261.273 697.859 260.213 698.672 259.32C699.486 258.413 700.479 257.707 701.652 257.2C702.826 256.68 704.146 256.42 705.612 256.42C706.826 256.42 707.946 256.627 708.972 257.04C710.012 257.44 710.906 258.027 711.652 258.8C712.412 259.56 713.006 260.507 713.432 261.64C713.859 262.76 714.072 264.04 714.072 265.48C714.072 266.04 714.012 266.413 713.892 266.6C713.772 266.787 713.546 266.88 713.212 266.88H699.672C699.712 268.16 699.886 269.273 700.192 270.22C700.512 271.167 700.952 271.96 701.512 272.6C702.072 273.227 702.739 273.7 703.512 274.02C704.286 274.327 705.152 274.48 706.112 274.48C707.006 274.48 707.772 274.38 708.412 274.18C709.066 273.967 709.626 273.74 710.092 273.5C710.559 273.26 710.946 273.04 711.252 272.84C711.572 272.627 711.846 272.52 712.072 272.52C712.366 272.52 712.592 272.633 712.752 272.86L713.752 274.16ZM721.805 259.68C722.245 259.187 722.712 258.74 723.205 258.34C723.698 257.94 724.218 257.6 724.765 257.32C725.325 257.027 725.912 256.807 726.525 256.66C727.152 256.5 727.825 256.42 728.545 256.42C729.652 256.42 730.625 256.607 731.465 256.98C732.318 257.34 733.025 257.86 733.585 258.54C734.158 259.207 734.592 260.013 734.885 260.96C735.178 261.907 735.325 262.953 735.325 264.1V277H731.745V264.1C731.745 262.567 731.392 261.38 730.685 260.54C729.992 259.687 728.932 259.26 727.505 259.26C726.452 259.26 725.465 259.513 724.545 260.02C723.638 260.527 722.798 261.213 722.025 262.08V277H718.445V256.74H720.585C721.092 256.74 721.405 256.987 721.525 257.48L721.805 259.68ZM746.696 277.32C745.096 277.32 743.863 276.873 742.996 275.98C742.143 275.087 741.716 273.8 741.716 272.12V259.72H739.276C739.063 259.72 738.883 259.66 738.736 259.54C738.59 259.407 738.516 259.207 738.516 258.94V257.52L741.836 257.1L742.656 250.84C742.696 250.64 742.783 250.48 742.916 250.36C743.063 250.227 743.25 250.16 743.476 250.16H745.276V257.14H751.136V259.72H745.276V271.88C745.276 272.733 745.483 273.367 745.896 273.78C746.31 274.193 746.843 274.4 747.496 274.4C747.87 274.4 748.19 274.353 748.456 274.26C748.736 274.153 748.976 274.04 749.176 273.92C749.376 273.8 749.543 273.693 749.676 273.6C749.823 273.493 749.95 273.44 750.056 273.44C750.243 273.44 750.41 273.553 750.556 273.78L751.596 275.48C750.983 276.053 750.243 276.507 749.376 276.84C748.51 277.16 747.616 277.32 746.696 277.32ZM763.235 256.42C764.715 256.42 766.048 256.667 767.235 257.16C768.422 257.653 769.435 258.353 770.275 259.26C771.115 260.167 771.755 261.267 772.195 262.56C772.648 263.84 772.875 265.273 772.875 266.86C772.875 268.46 772.648 269.9 772.195 271.18C771.755 272.46 771.115 273.553 770.275 274.46C769.435 275.367 768.422 276.067 767.235 276.56C766.048 277.04 764.715 277.28 763.235 277.28C761.742 277.28 760.395 277.04 759.195 276.56C758.008 276.067 756.995 275.367 756.155 274.46C755.315 273.553 754.668 272.46 754.215 271.18C753.775 269.9 753.555 268.46 753.555 266.86C753.555 265.273 753.775 263.84 754.215 262.56C754.668 261.267 755.315 260.167 756.155 259.26C756.995 258.353 758.008 257.653 759.195 257.16C760.395 256.667 761.742 256.42 763.235 256.42ZM763.235 274.5C765.235 274.5 766.728 273.833 767.715 272.5C768.702 271.153 769.195 269.28 769.195 266.88C769.195 264.467 768.702 262.587 767.715 261.24C766.728 259.893 765.235 259.22 763.235 259.22C762.222 259.22 761.335 259.393 760.575 259.74C759.828 260.087 759.202 260.587 758.695 261.24C758.202 261.893 757.828 262.7 757.575 263.66C757.335 264.607 757.215 265.68 757.215 266.88C757.215 269.28 757.708 271.153 758.695 272.5C759.695 273.833 761.208 274.5 763.235 274.5Z" fill="black"/>
</svg>
