<svg width="229" height="39" viewBox="0 0 229 39" fill="none" xmlns="http://www.w3.org/2000/svg">
<path d="M5.34859 20.16C5.90859 21.1733 6.53526 22.0533 7.22859 22.8C7.94859 23.5467 8.72193 24.12 9.54859 24.52C10.4019 24.92 11.2953 25.12 12.2286 25.12C13.2153 25.12 14.0286 24.88 14.6686 24.4C15.3086 23.8933 15.6286 23.2133 15.6286 22.36C15.6286 21.64 15.4419 21.0667 15.0686 20.64C14.6953 20.1867 14.0953 19.76 13.2686 19.36C12.4419 18.96 11.3486 18.5067 9.98859 18C9.32193 17.76 8.54859 17.4267 7.66859 17C6.81526 16.5733 6.00193 16.0267 5.22859 15.36C4.45526 14.6667 3.81526 13.84 3.30859 12.88C2.80193 11.8933 2.54859 10.7067 2.54859 9.32C2.54859 7.66666 2.97526 6.24 3.82859 5.04C4.70859 3.84 5.88193 2.93333 7.34859 2.32C8.84193 1.68 10.4953 1.36 12.3086 1.36C14.1753 1.36 15.7886 1.66667 17.1486 2.28C18.5353 2.89333 19.6819 3.66667 20.5886 4.6C21.4953 5.53333 22.1886 6.48 22.6686 7.44L17.5086 10.32C17.1086 9.65333 16.6419 9.08 16.1086 8.6C15.6019 8.09333 15.0286 7.70667 14.3886 7.44C13.7753 7.14667 13.1086 7 12.3886 7C11.4286 7 10.6953 7.21333 10.1886 7.64C9.68193 8.04 9.42859 8.54667 9.42859 9.16C9.42859 9.8 9.66859 10.36 10.1486 10.84C10.6553 11.32 11.3619 11.76 12.2686 12.16C13.2019 12.56 14.3219 12.9867 15.6286 13.44C16.6153 13.8133 17.5353 14.2533 18.3886 14.76C19.2419 15.24 19.9886 15.8267 20.6286 16.52C21.2953 17.2133 21.8153 18.0133 22.1886 18.92C22.5619 19.8267 22.7486 20.8667 22.7486 22.04C22.7486 23.4533 22.4553 24.72 21.8686 25.84C21.3086 26.9333 20.5353 27.8533 19.5486 28.6C18.5886 29.3467 17.4819 29.9067 16.2286 30.28C15.0019 30.68 13.7353 30.88 12.4286 30.88C10.6153 30.88 8.92193 30.56 7.34859 29.92C5.80193 29.2533 4.45526 28.36 3.30859 27.24C2.16193 26.12 1.26859 24.8933 0.628594 23.56L5.34859 20.16ZM49.5086 11.6L37.5086 38.8H31.4286L35.9086 28.52L27.9486 11.6H34.5886L40.5486 26.36L37.4286 26.32L43.3086 11.6H49.5086ZM56.528 23.32C57.4613 24.0933 58.3013 24.7067 59.048 25.16C59.8213 25.5867 60.5013 25.8933 61.088 26.08C61.6746 26.24 62.1813 26.32 62.608 26.32C63.2213 26.32 63.6746 26.1867 63.968 25.92C64.2613 25.6533 64.408 25.3067 64.408 24.88C64.408 24.48 64.288 24.1467 64.048 23.88C63.808 23.5867 63.3946 23.3067 62.808 23.04C62.248 22.7733 61.4746 22.4933 60.488 22.2C59.608 21.88 58.768 21.5067 57.968 21.08C57.1946 20.6267 56.5546 20.0267 56.048 19.28C55.5413 18.5333 55.288 17.5733 55.288 16.4C55.288 15.28 55.5813 14.3333 56.168 13.56C56.7813 12.7867 57.5946 12.2 58.608 11.8C59.648 11.4 60.8346 11.2 62.168 11.2C63.2346 11.2 64.2213 11.32 65.128 11.56C66.0613 11.8 66.928 12.12 67.728 12.52C68.5546 12.92 69.328 13.3867 70.048 13.92L67.888 17.84C67.1146 17.12 66.2346 16.5333 65.248 16.08C64.2613 15.6 63.3546 15.36 62.528 15.36C61.968 15.36 61.5413 15.4667 61.248 15.68C60.9813 15.8933 60.848 16.1733 60.848 16.52C60.848 16.92 61.008 17.2533 61.328 17.52C61.6746 17.7867 62.1546 18.04 62.768 18.28C63.408 18.4933 64.1813 18.7733 65.088 19.12C66.048 19.4667 66.928 19.8667 67.728 20.32C68.5546 20.7733 69.208 21.3467 69.688 22.04C70.1946 22.7333 70.448 23.6533 70.448 24.8C70.448 26.7733 69.8346 28.2667 68.608 29.28C67.408 30.2667 65.7146 30.76 63.528 30.76C62.1946 30.76 60.9546 30.6 59.808 30.28C58.688 29.9867 57.648 29.5867 56.688 29.08C55.728 28.5467 54.8346 27.96 54.008 27.32L56.528 23.32Z" fill="#B20000"/>
<path d="M97.6902 2H104.21V31.4L84.8502 14.24V30H78.3702V0.599999L97.6902 17.76V2ZM122.888 30.4C120.755 30.4 118.901 30.0133 117.328 29.24C115.781 28.44 114.581 27.32 113.728 25.88C112.875 24.44 112.448 22.7467 112.448 20.8C112.448 18.8267 112.861 17.12 113.688 15.68C114.515 14.24 115.701 13.1333 117.248 12.36C118.821 11.5867 120.675 11.2 122.808 11.2C124.941 11.2 126.741 11.5733 128.208 12.32C129.675 13.04 130.795 14.0933 131.568 15.48C132.341 16.8667 132.728 18.5467 132.728 20.52C132.728 20.8133 132.728 21.1067 132.728 21.4C132.728 21.6667 132.701 21.8933 132.648 22.08H115.848V18.72H127.208L125.768 20.56C125.901 20.3733 126.008 20.1467 126.088 19.88C126.195 19.5867 126.248 19.3467 126.248 19.16C126.248 18.36 126.101 17.6667 125.808 17.08C125.515 16.4933 125.101 16.04 124.568 15.72C124.035 15.4 123.408 15.24 122.688 15.24C121.781 15.24 121.021 15.44 120.408 15.84C119.795 16.24 119.328 16.8533 119.008 17.68C118.715 18.48 118.555 19.4933 118.528 20.72C118.528 21.84 118.688 22.8 119.008 23.6C119.328 24.4 119.808 25.0133 120.448 25.44C121.088 25.84 121.875 26.04 122.808 26.04C123.875 26.04 124.781 25.84 125.528 25.44C126.301 25.04 126.915 24.44 127.368 23.64L132.768 24.96C131.808 26.7733 130.501 28.1333 128.848 29.04C127.221 29.9467 125.235 30.4 122.888 30.4ZM137.392 11.6H143.832L148.072 21.8L152.272 11.6H158.712L148.072 32.16L137.392 11.6ZM173.74 30.4C171.606 30.4 169.753 30.0133 168.18 29.24C166.633 28.44 165.433 27.32 164.58 25.88C163.726 24.44 163.3 22.7467 163.3 20.8C163.3 18.8267 163.713 17.12 164.54 15.68C165.366 14.24 166.553 13.1333 168.1 12.36C169.673 11.5867 171.526 11.2 173.66 11.2C175.793 11.2 177.593 11.5733 179.06 12.32C180.526 13.04 181.646 14.0933 182.42 15.48C183.193 16.8667 183.58 18.5467 183.58 20.52C183.58 20.8133 183.58 21.1067 183.58 21.4C183.58 21.6667 183.553 21.8933 183.5 22.08H166.7V18.72H178.06L176.62 20.56C176.753 20.3733 176.86 20.1467 176.94 19.88C177.046 19.5867 177.1 19.3467 177.1 19.16C177.1 18.36 176.953 17.6667 176.66 17.08C176.366 16.4933 175.953 16.04 175.42 15.72C174.886 15.4 174.26 15.24 173.54 15.24C172.633 15.24 171.873 15.44 171.26 15.84C170.646 16.24 170.18 16.8533 169.86 17.68C169.566 18.48 169.406 19.4933 169.38 20.72C169.38 21.84 169.54 22.8 169.86 23.6C170.18 24.4 170.66 25.0133 171.3 25.44C171.94 25.84 172.726 26.04 173.66 26.04C174.726 26.04 175.633 25.84 176.38 25.44C177.153 25.04 177.766 24.44 178.22 23.64L183.62 24.96C182.66 26.7733 181.353 28.1333 179.7 29.04C178.073 29.9467 176.086 30.4 173.74 30.4ZM203.269 18.8C203.269 17.7067 203.056 16.8667 202.629 16.28C202.229 15.6933 201.549 15.4 200.589 15.4C199.949 15.4 199.389 15.5333 198.909 15.8C198.429 16.0667 198.056 16.4533 197.789 16.96C197.523 17.4667 197.389 18.08 197.389 18.8V30H191.309V11.6H197.389V14.36C197.923 13.3467 198.643 12.56 199.549 12C200.483 11.44 201.629 11.16 202.989 11.16C205.283 11.16 206.949 11.7733 207.989 13C209.029 14.2267 209.549 15.9467 209.549 18.16V30H203.269V18.8ZM216.157 11.6H228.477V16.6H216.157V11.6ZM219.397 5.2H225.197V30H219.397V5.2Z" fill="black"/>
</svg>
